<?xml version="1.0" encoding="UTF-8"?>
<svg xmlns="http://www.w3.org/2000/svg" xmlns:xlink="http://www.w3.org/1999/xlink" width="300px" height="14 0px" viewBox="0 0 602 444" version="1.1">
<defs>
<filter id="alpha" filterUnits="objectBoundingBox" x="0%" y="0%" width="100%" height="100%">
  <feColorMatrix type="matrix" in="SourceGraphic" values="0 0 0 0 1 0 0 0 0 1 0 0 0 0 1 0 0 0 1 0"/>
</filter>
<mask id="mask0">
  <g filter="url(#alpha)">
<rect x="0" y="0" width="602" height="444" style="fill:rgb(0%,0%,0%);fill-opacity:0.2;stroke:none;"/>
  </g>
</mask>
<clipPath id="clip1">
  <rect x="0" y="0" width="602" height="444"/>
</clipPath>
<g id="surface5" clip-path="url(#clip1)">
<path style=" stroke:none;fill-rule:nonzero;fill:rgb(0%,0%,0%);fill-opacity:1;" d="M 530.980469 434.613281 C 482.375 425.953125 429.222656 427.394531 373.464844 434.613281 C 398.878906 413.140625 420.808594 391.667969 395.398438 370.195312 C 444.96875 380.433594 451.910156 379.394531 507.054688 370.195312 C 494.265625 391.667969 518.191406 413.140625 530.980469 434.613281 Z M 530.980469 434.613281 "/>
</g>
<mask id="mask1">
  <g filter="url(#alpha)">
<rect x="0" y="0" width="602" height="444" style="fill:rgb(0%,0%,0%);fill-opacity:0.2;stroke:none;"/>
  </g>
</mask>
<clipPath id="clip2">
  <rect x="0" y="0" width="602" height="444"/>
</clipPath>
<g id="surface8" clip-path="url(#clip2)">
<path style=" stroke:none;fill-rule:nonzero;fill:rgb(0%,0%,0%);fill-opacity:1;" d="M 290.472656 360.027344 L 293.859375 392.234375 L 352.292969 388.84375 L 301.480469 387.996094 Z M 290.472656 360.027344 "/>
</g>
</defs>
<g id="surface1">
<path style=" stroke:none;fill-rule:nonzero;fill:rgb(90.196078%,90.196078%,90.196078%);fill-opacity:1;" d="M 348.96875 164.382812 L 602.019531 164.382812 L 602.019531 171.8125 L 348.96875 171.8125 Z M 348.96875 164.382812 "/>
<path style=" stroke:none;fill-rule:nonzero;fill:rgb(90.196078%,90.196078%,90.196078%);fill-opacity:1;" d="M 369.886719 102.25 L 433.996094 102.25 L 433.996094 166.410156 L 369.886719 166.410156 Z M 369.886719 102.25 "/>
<path style=" stroke:none;fill-rule:nonzero;fill:rgb(80%,80%,80%);fill-opacity:1;" d="M 382.710938 115.082031 L 421.171875 115.082031 L 421.171875 153.578125 L 382.710938 153.578125 Z M 382.710938 115.082031 "/>
<path style=" stroke:none;fill-rule:nonzero;fill:rgb(90.196078%,90.196078%,90.196078%);fill-opacity:1;" d="M 513.621094 102.25 L 529.816406 102.25 L 529.816406 166.410156 L 513.621094 166.410156 Z M 513.621094 102.25 "/>
<path style=" stroke:none;fill-rule:nonzero;fill:rgb(80%,80%,80%);fill-opacity:1;" d="M 513.621094 112.378906 L 529.816406 112.378906 L 529.816406 119.808594 L 513.621094 119.808594 Z M 513.621094 112.378906 "/>
<path style=" stroke:none;fill-rule:nonzero;fill:rgb(80%,80%,80%);fill-opacity:1;" d="M 513.621094 144.796875 L 529.816406 144.796875 L 529.816406 152.226562 L 513.621094 152.226562 Z M 513.621094 144.796875 "/>
<path style=" stroke:none;fill-rule:nonzero;fill:rgb(90.196078%,90.196078%,90.196078%);fill-opacity:1;" d="M 488.652344 102.25 L 504.847656 102.25 L 504.847656 166.410156 L 488.652344 166.410156 Z M 488.652344 102.25 "/>
<path style=" stroke:none;fill-rule:nonzero;fill:rgb(80%,80%,80%);fill-opacity:1;" d="M 488.652344 112.378906 L 504.847656 112.378906 L 504.847656 119.808594 L 488.652344 119.808594 Z M 488.652344 112.378906 "/>
<path style=" stroke:none;fill-rule:nonzero;fill:rgb(80%,80%,80%);fill-opacity:1;" d="M 488.652344 144.796875 L 504.847656 144.796875 L 504.847656 152.226562 L 488.652344 152.226562 Z M 488.652344 144.796875 "/>
<path style=" stroke:none;fill-rule:nonzero;fill:rgb(90.196078%,90.196078%,90.196078%);fill-opacity:1;" d="M 529.257812 109.175781 L 543.769531 101.984375 L 572.214844 159.484375 L 557.699219 166.675781 Z M 529.257812 109.175781 "/>
<path style=" stroke:none;fill-rule:nonzero;fill:rgb(80%,80%,80%);fill-opacity:1;" d="M 533.746094 118.253906 L 548.261719 111.0625 L 551.554688 117.71875 L 537.042969 124.910156 Z M 533.746094 118.253906 "/>
<path style=" stroke:none;fill-rule:nonzero;fill:rgb(80%,80%,80%);fill-opacity:1;" d="M 548.117188 147.304688 L 562.632812 140.113281 L 565.925781 146.773438 L 551.414062 153.964844 Z M 548.117188 147.304688 "/>
<path style=" stroke:none;fill-rule:nonzero;fill:rgb(90.196078%,90.196078%,90.196078%);fill-opacity:1;" d="M 393.84375 128.003906 L 410.15625 156.277344 L 377.53125 156.277344 Z M 393.84375 128.003906 "/>
<path style=" stroke:none;fill-rule:nonzero;fill:rgb(90.196078%,90.196078%,90.196078%);fill-opacity:1;" d="M 408.015625 130.703125 L 416.167969 144.84375 L 424.324219 158.980469 L 391.703125 158.980469 L 399.859375 144.84375 Z M 408.015625 130.703125 "/>
<path style=" stroke:none;fill-rule:nonzero;fill:rgb(90.196078%,90.196078%,90.196078%);fill-opacity:1;" d="M 418.472656 121.835938 C 418.472656 124.445312 416.359375 126.5625 413.75 126.5625 C 411.140625 126.5625 409.027344 124.445312 409.027344 121.835938 C 409.027344 119.222656 411.140625 117.105469 413.75 117.105469 C 416.359375 117.105469 418.472656 119.222656 418.472656 121.835938 Z M 418.472656 121.835938 "/>
<path style=" stroke:none;fill-rule:nonzero;fill:rgb(90.196078%,90.196078%,90.196078%);fill-opacity:1;" d="M 602.019531 69.828125 L 348.96875 69.828125 L 348.96875 62.402344 L 602.019531 62.402344 Z M 602.019531 69.828125 "/>
<path style=" stroke:none;fill-rule:nonzero;fill:rgb(90.196078%,90.196078%,90.196078%);fill-opacity:1;" d="M 581.101562 64.425781 L 516.996094 64.425781 L 516.996094 0.265625 L 581.101562 0.265625 Z M 581.101562 64.425781 "/>
<path style=" stroke:none;fill-rule:nonzero;fill:rgb(80%,80%,80%);fill-opacity:1;" d="M 568.28125 51.59375 L 529.816406 51.59375 L 529.816406 13.097656 L 568.28125 13.097656 Z M 568.28125 51.59375 "/>
<path style=" stroke:none;fill-rule:nonzero;fill:rgb(90.196078%,90.196078%,90.196078%);fill-opacity:1;" d="M 437.367188 64.425781 L 421.171875 64.425781 L 421.171875 0.265625 L 437.367188 0.265625 Z M 437.367188 64.425781 "/>
<path style=" stroke:none;fill-rule:nonzero;fill:rgb(80%,80%,80%);fill-opacity:1;" d="M 437.367188 17.824219 L 421.171875 17.824219 L 421.171875 10.394531 L 437.367188 10.394531 Z M 437.367188 17.824219 "/>
<path style=" stroke:none;fill-rule:nonzero;fill:rgb(80%,80%,80%);fill-opacity:1;" d="M 437.367188 50.242188 L 421.171875 50.242188 L 421.171875 42.816406 L 437.367188 42.816406 Z M 437.367188 50.242188 "/>
<path style=" stroke:none;fill-rule:nonzero;fill:rgb(90.196078%,90.196078%,90.196078%);fill-opacity:1;" d="M 462.335938 64.425781 L 446.140625 64.425781 L 446.140625 0.265625 L 462.335938 0.265625 Z M 462.335938 64.425781 "/>
<path style=" stroke:none;fill-rule:nonzero;fill:rgb(80%,80%,80%);fill-opacity:1;" d="M 462.335938 17.824219 L 446.140625 17.824219 L 446.140625 10.394531 L 462.335938 10.394531 Z M 462.335938 17.824219 "/>
<path style=" stroke:none;fill-rule:nonzero;fill:rgb(80%,80%,80%);fill-opacity:1;" d="M 462.335938 50.242188 L 446.140625 50.242188 L 446.140625 42.816406 L 462.335938 42.816406 Z M 462.335938 50.242188 "/>
<path style=" stroke:none;fill-rule:nonzero;fill:rgb(90.196078%,90.196078%,90.196078%);fill-opacity:1;" d="M 393.289062 64.691406 L 378.773438 57.5 L 407.21875 0 L 421.734375 7.191406 Z M 393.289062 64.691406 "/>
<path style=" stroke:none;fill-rule:nonzero;fill:rgb(80%,80%,80%);fill-opacity:1;" d="M 413.949219 22.929688 L 399.433594 15.738281 L 402.726562 9.078125 L 417.242188 16.269531 Z M 413.949219 22.929688 "/>
<path style=" stroke:none;fill-rule:nonzero;fill:rgb(80%,80%,80%);fill-opacity:1;" d="M 399.578125 51.980469 L 385.0625 44.789062 L 388.355469 38.132812 L 402.871094 45.324219 Z M 399.578125 51.980469 "/>
<path style=" stroke:none;fill-rule:nonzero;fill:rgb(90.196078%,90.196078%,90.196078%);fill-opacity:1;" d="M 557.144531 26.019531 L 548.988281 40.15625 L 540.835938 54.296875 L 573.457031 54.296875 L 565.300781 40.15625 Z M 557.144531 26.019531 "/>
<path style=" stroke:none;fill-rule:nonzero;fill:rgb(90.196078%,90.196078%,90.196078%);fill-opacity:1;" d="M 542.976562 28.722656 L 526.664062 56.996094 L 559.285156 56.996094 L 551.132812 42.859375 Z M 542.976562 28.722656 "/>
<path style=" stroke:none;fill-rule:nonzero;fill:rgb(90.196078%,90.196078%,90.196078%);fill-opacity:1;" d="M 541.960938 19.851562 C 541.960938 22.460938 539.847656 24.578125 537.238281 24.578125 C 534.628906 24.578125 532.515625 22.460938 532.515625 19.851562 C 532.515625 17.242188 534.628906 15.125 537.238281 15.125 C 539.847656 15.125 541.960938 17.242188 541.960938 19.851562 Z M 541.960938 19.851562 "/>
<path style=" stroke:none;fill-rule:nonzero;fill:rgb(90.196078%,90.196078%,90.196078%);fill-opacity:1;" d="M 602.019531 273.796875 L 348.96875 273.796875 L 348.96875 266.367188 L 602.019531 266.367188 Z M 602.019531 273.796875 "/>
<path style=" stroke:none;fill-rule:nonzero;fill:rgb(90.196078%,90.196078%,90.196078%);fill-opacity:1;" d="M 581.101562 268.394531 L 516.996094 268.394531 L 516.996094 204.230469 L 581.101562 204.230469 Z M 581.101562 268.394531 "/>
<path style=" stroke:none;fill-rule:nonzero;fill:rgb(80%,80%,80%);fill-opacity:1;" d="M 568.28125 255.558594 L 529.816406 255.558594 L 529.816406 217.0625 L 568.28125 217.0625 Z M 568.28125 255.558594 "/>
<path style=" stroke:none;fill-rule:nonzero;fill:rgb(90.196078%,90.196078%,90.196078%);fill-opacity:1;" d="M 437.367188 268.394531 L 421.171875 268.394531 L 421.171875 204.230469 L 437.367188 204.230469 Z M 437.367188 268.394531 "/>
<path style=" stroke:none;fill-rule:nonzero;fill:rgb(80%,80%,80%);fill-opacity:1;" d="M 437.367188 221.792969 L 421.171875 221.792969 L 421.171875 214.363281 L 437.367188 214.363281 Z M 437.367188 221.792969 "/>
<path style=" stroke:none;fill-rule:nonzero;fill:rgb(80%,80%,80%);fill-opacity:1;" d="M 437.367188 254.210938 L 421.171875 254.210938 L 421.171875 246.78125 L 437.367188 246.78125 Z M 437.367188 254.210938 "/>
<path style=" stroke:none;fill-rule:nonzero;fill:rgb(90.196078%,90.196078%,90.196078%);fill-opacity:1;" d="M 462.335938 268.394531 L 446.140625 268.394531 L 446.140625 204.230469 L 462.335938 204.230469 Z M 462.335938 268.394531 "/>
<path style=" stroke:none;fill-rule:nonzero;fill:rgb(80%,80%,80%);fill-opacity:1;" d="M 462.335938 221.792969 L 446.140625 221.792969 L 446.140625 214.363281 L 462.335938 214.363281 Z M 462.335938 221.792969 "/>
<path style=" stroke:none;fill-rule:nonzero;fill:rgb(80%,80%,80%);fill-opacity:1;" d="M 462.335938 254.210938 L 446.140625 254.210938 L 446.140625 246.78125 L 462.335938 246.78125 Z M 462.335938 254.210938 "/>
<path style=" stroke:none;fill-rule:nonzero;fill:rgb(90.196078%,90.196078%,90.196078%);fill-opacity:1;" d="M 393.289062 268.65625 L 378.773438 261.464844 L 407.21875 203.964844 L 421.734375 211.15625 Z M 393.289062 268.65625 "/>
<path style=" stroke:none;fill-rule:nonzero;fill:rgb(80%,80%,80%);fill-opacity:1;" d="M 413.949219 226.894531 L 399.433594 219.703125 L 402.726562 213.042969 L 417.242188 220.238281 Z M 413.949219 226.894531 "/>
<path style=" stroke:none;fill-rule:nonzero;fill:rgb(80%,80%,80%);fill-opacity:1;" d="M 399.578125 255.949219 L 385.0625 248.753906 L 388.355469 242.097656 L 402.871094 249.289062 Z M 399.578125 255.949219 "/>
<path style=" stroke:none;fill-rule:nonzero;fill:rgb(90.196078%,90.196078%,90.196078%);fill-opacity:1;" d="M 557.144531 229.984375 L 548.988281 244.125 L 540.835938 258.261719 L 573.457031 258.261719 L 565.300781 244.125 Z M 557.144531 229.984375 "/>
<path style=" stroke:none;fill-rule:nonzero;fill:rgb(90.196078%,90.196078%,90.196078%);fill-opacity:1;" d="M 542.976562 232.6875 L 534.820312 246.824219 L 526.664062 260.964844 L 559.285156 260.964844 L 551.132812 246.824219 Z M 542.976562 232.6875 "/>
<path style=" stroke:none;fill-rule:nonzero;fill:rgb(90.196078%,90.196078%,90.196078%);fill-opacity:1;" d="M 541.960938 223.816406 C 541.960938 226.429688 539.847656 228.546875 537.238281 228.546875 C 534.628906 228.546875 532.515625 226.429688 532.515625 223.816406 C 532.515625 221.207031 534.628906 219.089844 537.238281 219.089844 C 539.847656 219.089844 541.960938 221.207031 541.960938 223.816406 Z M 541.960938 223.816406 "/>
<path style=" stroke:none;fill-rule:nonzero;fill:rgb(90.196078%,90.196078%,90.196078%);fill-opacity:1;" d="M 596.1875 422.746094 C 596.1875 411.042969 462.726562 401.558594 298.09375 401.558594 C 133.460938 401.558594 0 411.042969 0 422.746094 C 0 434.449219 133.460938 443.9375 298.09375 443.9375 C 462.726562 443.9375 596.1875 434.449219 596.1875 422.746094 Z M 596.1875 422.746094 "/>
<path style=" stroke:none;fill-rule:nonzero;fill:rgb(27.45098%,13.333333%,33.333333%);fill-opacity:1;" d="M 530.980469 434.613281 C 482.375 425.953125 429.222656 427.394531 373.464844 434.613281 C 398.878906 413.140625 420.808594 391.667969 395.398438 370.195312 C 444.96875 380.433594 451.910156 379.394531 507.054688 370.195312 C 494.265625 391.667969 518.191406 413.140625 530.980469 434.613281 Z M 530.980469 434.613281 "/>
<use xlink:href="#surface5" mask="url(#mask0)"/>
<path style=" stroke:none;fill-rule:nonzero;fill:rgb(27.45098%,13.333333%,33.333333%);fill-opacity:1;" d="M 519.125 425.453125 C 477.835938 418.542969 432.683594 419.691406 385.320312 425.453125 C 406.910156 408.3125 425.539062 391.171875 403.953125 374.035156 C 446.058594 382.203125 451.957031 381.378906 498.800781 374.035156 C 487.9375 391.171875 508.261719 408.3125 519.125 425.453125 Z M 519.125 425.453125 "/>
<path style=" stroke:none;fill-rule:nonzero;fill:rgb(18.431373%,18.039216%,25.490196%);fill-opacity:1;" d="M 525.398438 375.816406 C 525.398438 387.980469 515.546875 397.835938 503.398438 397.835938 C 491.25 397.835938 481.398438 387.980469 481.398438 375.816406 C 481.398438 363.65625 491.25 353.800781 503.398438 353.800781 C 515.546875 353.800781 525.398438 363.65625 525.398438 375.816406 Z M 525.398438 375.816406 "/>
<path style=" stroke:none;fill-rule:nonzero;fill:rgb(62.745098%,38.039216%,41.568627%);fill-opacity:1;" d="M 403.527344 350.277344 L 418.773438 352.820312 L 426.394531 374.859375 L 404.375 388.421875 L 378.96875 350.277344 Z M 403.527344 350.277344 "/>
<path style=" stroke:none;fill-rule:nonzero;fill:rgb(62.745098%,38.039216%,41.568627%);fill-opacity:1;" d="M 482.285156 348.582031 C 482.285156 368.242188 466.363281 384.183594 446.71875 384.183594 C 427.074219 384.183594 411.152344 368.242188 411.152344 348.582031 C 411.152344 328.921875 427.074219 312.984375 446.71875 312.984375 C 466.363281 312.984375 482.285156 328.921875 482.285156 348.582031 Z M 482.285156 348.582031 "/>
<path style=" stroke:none;fill-rule:nonzero;fill:rgb(18.431373%,18.039216%,25.490196%);fill-opacity:1;" d="M 250.246094 218.902344 C 250.246094 218.902344 163.867188 228.226562 148.625 226.53125 C 133.378906 224.835938 126.605469 223.140625 126.605469 223.140625 C 126.605469 223.140625 116.441406 236.703125 121.523438 242.636719 C 124.371094 246.054688 127.8125 248.925781 131.6875 251.109375 C 131.6875 251.109375 141.003906 248.566406 147.777344 251.109375 C 154.550781 253.652344 223.148438 264.671875 235.003906 254.5 C 246.859375 244.332031 250.246094 218.902344 250.246094 218.902344 Z M 250.246094 218.902344 "/>
<path style=" stroke:none;fill-rule:nonzero;fill:rgb(18.431373%,18.039216%,25.490196%);fill-opacity:1;" d="M 256.175781 407.914062 C 256.175781 407.914062 199.433594 391.808594 189.273438 320.613281 L 189.273438 313.832031 C 189.273438 313.832031 178.046875 333.542969 174.03125 337.566406 C 169.371094 342.226562 152.859375 384.183594 153.703125 388.421875 C 154.550781 392.65625 153.703125 394.351562 153.703125 394.351562 L 129.144531 391.808594 L 129.144531 384.183594 C 129.144531 384.183594 142.273438 344.769531 143.121094 335.445312 C 143.964844 326.121094 175.722656 261.28125 175.722656 261.28125 C 175.722656 261.28125 187.578125 236.703125 207.902344 261.28125 C 228.230469 285.863281 229.921875 302.8125 229.921875 302.8125 L 256.175781 353.667969 Z M 256.175781 407.914062 "/>
<path style=" stroke:none;fill-rule:nonzero;fill:rgb(18.431373%,18.039216%,25.490196%);fill-opacity:1;" d="M 129.144531 220.597656 L 102.046875 211.273438 C 102.046875 211.273438 76.640625 192.628906 82.570312 211.273438 C 88.496094 229.921875 115.597656 270.605469 123.21875 266.367188 C 130.839844 262.128906 140.007812 251.609375 137.964844 250.089844 C 135.921875 248.566406 122.371094 237.550781 129.144531 220.597656 Z M 129.144531 220.597656 "/>
<path style=" stroke:none;fill-rule:nonzero;fill:rgb(18.431373%,18.039216%,25.490196%);fill-opacity:1;" d="M 132.421875 379.179688 L 110.546875 389.871094 C 110.546875 389.871094 84.089844 393.945312 98.84375 401.582031 C 113.597656 409.21875 154.296875 417.367188 156.332031 410.238281 C 158.367188 403.109375 157.558594 391.277344 155.421875 391.59375 C 153.28125 391.90625 138.527344 393.433594 132.421875 379.179688 Z M 132.421875 379.179688 "/>
<path style=" stroke:none;fill-rule:nonzero;fill:rgb(34.117647%,35.294118%,53.72549%);fill-opacity:1;" d="M 245.164062 351.972656 C 245.164062 351.972656 234.15625 399.4375 252.789062 409.609375 C 271.417969 419.78125 401.835938 421.476562 411.996094 402.828125 C 422.160156 384.183594 417.078125 384.183594 417.078125 384.183594 L 389.980469 353.667969 L 411.996094 351.972656 C 411.996094 351.972656 411.996094 345.191406 404.375 344.34375 C 396.753906 343.496094 373.042969 335.023438 352.71875 340.957031 C 332.390625 346.886719 320.535156 329.089844 320.535156 329.089844 Z M 245.164062 351.972656 "/>
<path style=" stroke:none;fill-rule:nonzero;fill:rgb(24.705882%,23.921569%,33.72549%);fill-opacity:1;" d="M 230.769531 203.644531 L 216.371094 282.472656 L 315.457031 270.605469 L 333.238281 199.40625 Z M 230.769531 203.644531 "/>
<path style=" stroke:none;fill-rule:nonzero;fill:rgb(100%,100%,100%);fill-opacity:1;" d="M 233.734375 206.613281 L 221.878906 276.960938 L 312.066406 266.367188 L 329.429688 202.375 Z M 233.734375 206.613281 "/>
<path style=" stroke:none;fill-rule:nonzero;fill:rgb(70.196078%,70.196078%,70.196078%);fill-opacity:1;" d="M 219.761719 283.320312 L 216.371094 282.472656 L 214.679688 285.863281 L 241.777344 361.296875 L 244.328125 360.320312 L 245.164062 355.363281 Z M 219.761719 283.320312 "/>
<path style=" stroke:none;fill-rule:nonzero;fill:rgb(81.568627%,80.392157%,88.235294%);fill-opacity:1;" d="M 216.371094 281.625 L 243.472656 360.449219 L 345.941406 345.191406 L 315.457031 270.605469 Z M 216.371094 281.625 "/>
<path style=" stroke:none;fill-rule:nonzero;fill:rgb(24.705882%,23.921569%,33.72549%);fill-opacity:1;" d="M 229.921875 279.082031 L 229.921875 283.320312 L 305.292969 274.84375 L 304.445312 270.605469 Z M 229.921875 279.082031 "/>
<path style=" stroke:none;fill-rule:nonzero;fill:rgb(24.705882%,23.921569%,33.72549%);fill-opacity:1;" d="M 231.617188 287.558594 L 243.472656 320.613281 L 320.535156 311.289062 L 306.988281 279.929688 Z M 231.617188 287.558594 "/>
<path style=" stroke:none;fill-rule:nonzero;fill:rgb(62.745098%,38.039216%,41.568627%);fill-opacity:1;" d="M 328.15625 334.175781 L 325.617188 327.394531 C 325.617188 327.394531 306.140625 293.488281 295.976562 300.269531 C 285.816406 307.050781 317.148438 340.109375 317.148438 340.109375 L 327.3125 340.109375 Z M 328.15625 334.175781 "/>
<path style=" stroke:none;fill-rule:nonzero;fill:rgb(62.745098%,38.039216%,41.568627%);fill-opacity:1;" d="M 263.796875 339.261719 L 261.257812 329.089844 C 261.257812 329.089844 254.480469 297.726562 266.335938 299.421875 C 278.195312 301.117188 281.582031 330.785156 281.582031 330.785156 L 280.734375 337.566406 Z M 263.796875 339.261719 "/>
<path style=" stroke:none;fill-rule:nonzero;fill:rgb(34.117647%,35.294118%,53.72549%);fill-opacity:1;" d="M 284.121094 335.023438 C 284.121094 335.023438 262.101562 331.632812 261.257812 336.71875 C 260.410156 341.804688 256.175781 418.085938 277.347656 420.628906 C 298.519531 423.171875 403.527344 434.191406 392.519531 407.914062 C 381.511719 381.640625 364.574219 385.03125 364.574219 385.03125 L 292.589844 392.65625 Z M 284.121094 335.023438 "/>
<path style=" stroke:none;fill-rule:nonzero;fill:rgb(34.117647%,35.294118%,53.72549%);fill-opacity:1;" d="M 350.601562 344.769531 L 328.160156 329.089844 L 313.339844 340.53125 L 331.96875 360.875 Z M 350.601562 344.769531 "/>
<use xlink:href="#surface8" mask="url(#mask1)"/>
<path style=" stroke:none;fill-rule:nonzero;fill:rgb(18.431373%,18.039216%,25.490196%);fill-opacity:1;" d="M 506.617188 355.050781 C 506.617188 378.457031 487.660156 397.429688 464.277344 397.429688 C 440.890625 397.429688 421.933594 378.457031 421.933594 355.050781 C 421.933594 331.644531 440.890625 312.671875 464.277344 312.671875 C 487.660156 312.671875 506.617188 331.644531 506.617188 355.050781 Z M 506.617188 355.050781 "/>
<path style=" stroke:none;fill-rule:nonzero;fill:rgb(27.45098%,13.333333%,33.333333%);fill-opacity:1;" d="M 246.4375 231.191406 L 298.941406 229.363281 L 304.023438 210.003906 L 249.824219 211.640625 Z M 246.4375 231.191406 "/>
<path style=" stroke:none;fill-rule:nonzero;fill:rgb(90.196078%,90.196078%,90.196078%);fill-opacity:1;" d="M 232.886719 242.210938 L 312.492188 239.667969 L 313.339844 236.277344 L 233.734375 239.082031 Z M 232.886719 242.210938 "/>
<path style=" stroke:none;fill-rule:nonzero;fill:rgb(90.196078%,90.196078%,90.196078%);fill-opacity:1;" d="M 231.191406 250.6875 L 310.796875 248.144531 L 311.644531 244.753906 L 232.039062 247.558594 Z M 231.191406 250.6875 "/>
<path style=" stroke:none;fill-rule:nonzero;fill:rgb(90.196078%,90.196078%,90.196078%);fill-opacity:1;" d="M 230.347656 257.46875 L 309.949219 254.925781 L 310.796875 251.535156 L 231.191406 254.339844 Z M 230.347656 257.46875 "/>
</g>
</svg>
